<svg width="1280" height="720" xmlns="http://www.w3.org/2000/svg" xmlns:xlink="http://www.w3.org/1999/xlink" overflow="hidden"><g><rect x="0" y="0" width="1280" height="720" fill="#FFFFFF"/><path d="M328.786 233.342C398.737 61.464 594.779-21.1646 766.658 48.7865 938.536 118.737 1021.16 314.779 951.214 486.658 881.262 658.536 685.221 741.165 513.342 671.214 341.464 601.262 258.835 405.221 328.786 233.342Z" stroke="#000000" stroke-width="2" stroke-miterlimit="8" fill="#FFFFFF" fill-rule="evenodd"/><path d="M506.623 305.718C536.602 232.056 620.62 196.644 694.282 226.623 767.944 256.602 803.356 340.62 773.377 414.282 743.398 487.944 659.38 523.356 585.718 493.377 512.056 463.398 476.644 379.38 506.623 305.718Z" stroke="#000000" stroke-width="2" stroke-miterlimit="8" fill="#FFFFFF" fill-rule="evenodd"/><path d="M766.658 48.7864 694.282 226.623" stroke="#000000" stroke-width="2" stroke-miterlimit="8" fill="none" fill-rule="evenodd"/><path d="M0 0 135.765 135.765" stroke="#000000" stroke-width="2" stroke-miterlimit="8" fill="none" fill-rule="evenodd" transform="matrix(-0.926231 -0.376957 -0.376957 0.926231 949.622 229.499)"/><path d="M0 0 192 0.000104987" stroke="#000000" stroke-width="2" stroke-miterlimit="8" fill="none" fill-rule="evenodd" transform="matrix(-0.926231 -0.376957 -0.376957 0.926231 951.214 486.658)"/><path d="M695.929 492.695 770.501 669.622" stroke="#000000" stroke-width="2" stroke-miterlimit="8" fill="none" fill-rule="evenodd"/><path d="M585.718 493.377 513.343 671.214" stroke="#000000" stroke-width="2" stroke-miterlimit="8" fill="none" fill-rule="evenodd"/><path d="M509.499 50.3783 584.071 227.305" stroke="#000000" stroke-width="2" stroke-miterlimit="8" fill="none" fill-rule="evenodd"/><path d="M328.786 233.342 506.623 305.718" stroke="#000000" stroke-width="2" stroke-miterlimit="8" fill="none" fill-rule="evenodd"/><path d="M0 0 135.765 135.765" stroke="#000000" stroke-width="2" stroke-miterlimit="8" fill="none" fill-rule="evenodd" transform="matrix(-0.926231 -0.376957 -0.376957 0.926231 507.305 415.929)"/><text font-family="Aptos,Aptos_MSFontService,sans-serif" font-weight="400" font-size="24" transform="translate(620.312 617)">A/A#</text><text font-family="Aptos,Aptos_MSFontService,sans-serif" font-weight="400" font-size="24" transform="translate(799.331 536)">B/B#</text><text font-family="Aptos,Aptos_MSFontService,sans-serif" font-weight="400" font-size="24" transform="translate(857.498 365)">C/C#</text><text font-family="Aptos,Aptos_MSFontService,sans-serif" font-weight="400" font-size="24" transform="translate(795.365 191)">D/D#</text><text font-family="Aptos,Aptos_MSFontService,sans-serif" font-weight="400" font-size="24" transform="translate(615.256 107)">E/E#</text><text font-family="Aptos,Aptos_MSFontService,sans-serif" font-weight="400" font-size="24" transform="translate(452.974 191)">F/F#</text><text font-family="Aptos,Aptos_MSFontService,sans-serif" font-weight="400" font-size="24" transform="translate(369.686 364)">G/G#</text><text font-family="Aptos,Aptos_MSFontService,sans-serif" font-weight="400" font-size="24" transform="translate(423.098 536)"># Toggle</text></g></svg>